<svg xmlns="http://www.w3.org/2000/svg" viewBox="0 0 860 520" font-family="ui-sans-serif, system-ui, -apple-system, Segoe UI, Roboto, sans-serif">
  <rect x="0" y="0" width="860" height="520" rx="16" fill="#ffffff"/>
  <rect x="0.5" y="0.5" width="859" height="519" rx="16" fill="none" stroke="#e2e8f0"/>

  <text x="430" y="46" text-anchor="middle" font-size="25" font-weight="800" fill="#0f172a">The GPU Memory Hierarchy</text>
  <text x="430" y="72" text-anchor="middle" font-size="14" fill="#64748b">Smaller and faster at the top &#183; bigger and slower at the bottom</text>

  <!-- Left axis -->
  <g>
    <line x1="44" y1="190" x2="44" y2="145" stroke="#cbd5e1" stroke-width="2"/>
    <polygon points="44,135 39,148 49,148" fill="#cbd5e1"/>
    <text x="44" y="210" text-anchor="middle" font-size="11.5" font-weight="700" fill="#64748b" letter-spacing="1">FAST</text>

    <line x1="44" y1="400" x2="44" y2="445" stroke="#cbd5e1" stroke-width="2"/>
    <polygon points="44,455 39,442 49,442" fill="#cbd5e1"/>
    <text x="44" y="390" text-anchor="middle" font-size="11.5" font-weight="700" fill="#64748b" letter-spacing="1">BIG</text>
  </g>

  <!-- ===== Pyramid (apex centre x = 290) ===== -->
  <!-- Registers -->
  <polygon points="260,130 320,130 361,211 219,211" fill="#f59e0b"/>
  <text x="290" y="176" text-anchor="middle" font-size="15" font-weight="700" fill="#ffffff">Registers</text>
  <!-- SRAM -->
  <polygon points="219,213 361,213 402,292 178,292" fill="#14b8a6"/>
  <text x="290" y="248" text-anchor="middle" font-size="15" font-weight="700" fill="#ffffff">SRAM</text>
  <text x="290" y="267" text-anchor="middle" font-size="11" fill="#d1fae5">shared memory</text>
  <!-- L2 -->
  <polygon points="178,294 402,294 443,373 137,373" fill="#3b82f6"/>
  <text x="290" y="338" text-anchor="middle" font-size="15" font-weight="700" fill="#ffffff">L2 Cache</text>
  <!-- HBM -->
  <polygon points="137,375 443,375 485,455 95,455" fill="#6366f1"/>
  <text x="290" y="420" text-anchor="middle" font-size="15" font-weight="700" fill="#ffffff">HBM / DRAM</text>

  <!-- ===== Right annotation rail ===== -->
  <line x1="556" y1="150" x2="556" y2="435" stroke="#e2e8f0" stroke-width="2"/>

  <!-- connectors from each band edge to the rail (at band mid-height) -->
  <g stroke="#cbd5e1" stroke-width="1.5">
    <line x1="341" y1="170" x2="556" y2="170"/>
    <line x1="382" y1="251" x2="556" y2="251"/>
    <line x1="423" y1="332" x2="556" y2="332"/>
    <line x1="464" y1="414" x2="556" y2="414"/>
  </g>

  <!-- Registers tag -->
  <circle cx="584" cy="166" r="6" fill="#f59e0b"/>
  <text x="600" y="171" font-size="17" font-weight="800" fill="#b45309">~20 TB/s</text>
  <text x="600" y="190" font-size="13" fill="#64748b">~KB &#183; per-thread</text>

  <!-- SRAM tag -->
  <circle cx="584" cy="247" r="6" fill="#14b8a6"/>
  <text x="600" y="252" font-size="17" font-weight="800" fill="#0f766e">~19 TB/s</text>
  <text x="600" y="271" font-size="13" fill="#64748b">~100&#8211;200 KB &#183; per-SM</text>

  <!-- L2 tag -->
  <circle cx="584" cy="328" r="6" fill="#3b82f6"/>
  <text x="600" y="333" font-size="17" font-weight="800" fill="#1d4ed8">~5 TB/s</text>
  <text x="600" y="352" font-size="13" fill="#64748b">~40 MB &#183; chip-wide</text>

  <!-- HBM tag -->
  <circle cx="584" cy="410" r="6" fill="#6366f1"/>
  <text x="600" y="415" font-size="17" font-weight="800" fill="#4338ca">~1.5 TB/s</text>
  <text x="600" y="434" font-size="13" fill="#64748b">~40&#8211;80 GB &#183; chip-wide</text>
</svg>
