<svg xmlns="http://www.w3.org/2000/svg" viewBox="0 0 860 480" font-family="ui-sans-serif, system-ui, -apple-system, Segoe UI, Roboto, sans-serif">
  <rect x="0" y="0" width="860" height="480" rx="16" fill="#ffffff"/>
  <rect x="0.5" y="0.5" width="859" height="479" rx="16" fill="none" stroke="#e2e8f0"/>

  <text x="430" y="44" text-anchor="middle" font-size="24" font-weight="800" fill="#0f172a">The GPU Memory Hierarchy</text>
  <text x="430" y="68" text-anchor="middle" font-size="13.5" fill="#64748b">Smaller and faster at the top &#183; bigger and slower at the bottom</text>

  <!-- Left axis -->
  <g>
    <line x1="44" y1="195" x2="44" y2="155" stroke="#cbd5e1" stroke-width="2"/>
    <polygon points="44,146 39,158 49,158" fill="#cbd5e1"/>
    <text x="44" y="214" text-anchor="middle" font-size="11" font-weight="700" fill="#64748b" letter-spacing="1">FAST</text>

    <line x1="44" y1="365" x2="44" y2="405" stroke="#cbd5e1" stroke-width="2"/>
    <polygon points="44,414 39,402 49,402" fill="#cbd5e1"/>
    <text x="44" y="356" text-anchor="middle" font-size="11" font-weight="700" fill="#64748b" letter-spacing="1">BIG</text>
  </g>

  <!-- ===== Pyramid (apex centre x = 290) ===== -->
  <!-- Registers -->
  <polygon points="290,148 352,215 228,215" fill="#f59e0b"/>
  <text x="290" y="200" text-anchor="middle" font-size="13" font-weight="700" fill="#ffffff">Registers</text>
  <!-- SRAM -->
  <polygon points="228,217 352,217 387,280 193,280" fill="#14b8a6"/>
  <text x="290" y="248" text-anchor="middle" font-size="14" font-weight="700" fill="#ffffff">SRAM</text>
  <text x="290" y="266" text-anchor="middle" font-size="10.5" fill="#d1fae5">shared memory</text>
  <!-- L2 -->
  <polygon points="193,282 387,282 421,345 159,345" fill="#3b82f6"/>
  <text x="290" y="319" text-anchor="middle" font-size="14" font-weight="700" fill="#ffffff">L2 Cache</text>
  <!-- HBM -->
  <polygon points="159,347 421,347 455,410 125,410" fill="#6366f1"/>
  <text x="290" y="384" text-anchor="middle" font-size="14" font-weight="700" fill="#ffffff">HBM / DRAM</text>

  <!-- ===== Right annotation rail ===== -->
  <line x1="556" y1="160" x2="556" y2="400" stroke="#e2e8f0" stroke-width="2"/>

  <!-- connectors from each band edge to the rail (at band mid-height) -->
  <g stroke="#cbd5e1" stroke-width="1.5">
    <line x1="335" y1="182" x2="556" y2="182"/>
    <line x1="370" y1="248" x2="556" y2="248"/>
    <line x1="404" y1="313" x2="556" y2="313"/>
    <line x1="438" y1="378" x2="556" y2="378"/>
  </g>

  <!-- Registers tag -->
  <circle cx="584" cy="178" r="6" fill="#f59e0b"/>
  <text x="600" y="183" font-size="16" font-weight="800" fill="#b45309">~20 TB/s</text>
  <text x="600" y="201" font-size="12.5" fill="#64748b">~KB &#183; per-thread</text>

  <!-- SRAM tag -->
  <circle cx="584" cy="244" r="6" fill="#14b8a6"/>
  <text x="600" y="249" font-size="16" font-weight="800" fill="#0f766e">~19 TB/s</text>
  <text x="600" y="267" font-size="12.5" fill="#64748b">~100&#8211;200 KB &#183; per-SM</text>

  <!-- L2 tag -->
  <circle cx="584" cy="309" r="6" fill="#3b82f6"/>
  <text x="600" y="314" font-size="16" font-weight="800" fill="#1d4ed8">~5 TB/s</text>
  <text x="600" y="332" font-size="12.5" fill="#64748b">~40 MB &#183; chip-wide</text>

  <!-- HBM tag -->
  <circle cx="584" cy="374" r="6" fill="#6366f1"/>
  <text x="600" y="379" font-size="16" font-weight="800" fill="#4338ca">~1.5 TB/s</text>
  <text x="600" y="397" font-size="12.5" fill="#64748b">~40&#8211;80 GB &#183; chip-wide</text>
</svg>
