<svg xmlns="http://www.w3.org/2000/svg" viewBox="0 0 860 480" font-family="ui-sans-serif, system-ui, -apple-system, Segoe UI, Roboto, sans-serif">
  <rect x="0" y="0" width="860" height="480" rx="16" fill="#ffffff"/>
  <rect x="0.5" y="0.5" width="859" height="479" rx="16" fill="none" stroke="#e2e8f0"/>

  <text x="430" y="44" text-anchor="middle" font-size="24" font-weight="800" fill="#0f172a">The GPU Memory Hierarchy</text>
  <text x="430" y="68" text-anchor="middle" font-size="13.5" fill="#64748b">Smaller and faster at the top &#183; bigger and slower at the bottom</text>

  <!-- Left axis -->
  <g>
    <line x1="44" y1="195" x2="44" y2="155" stroke="#cbd5e1" stroke-width="2"/>
    <polygon points="44,146 39,158 49,158" fill="#cbd5e1"/>
    <text x="44" y="214" text-anchor="middle" font-size="11" font-weight="700" fill="#64748b" letter-spacing="1">FAST</text>

    <line x1="44" y1="365" x2="44" y2="405" stroke="#cbd5e1" stroke-width="2"/>
    <polygon points="44,414 39,402 49,402" fill="#cbd5e1"/>
    <text x="44" y="356" text-anchor="middle" font-size="11" font-weight="700" fill="#64748b" letter-spacing="1">BIG</text>
  </g>

  <!-- ===== Pyramid: apex (290,150), base corners (135,410)&(445,410) =====
       all band corners lie on the two straight edges -> single clean triangle -->
  <!-- Registers (true apex triangle) -->
  <polygon points="290,150 328,213 252,213" fill="#f59e0b"/>
  <text x="290" y="207" text-anchor="middle" font-size="11" font-weight="700" fill="#ffffff">Registers</text>
  <!-- SRAM -->
  <polygon points="251,216 329,216 366,277 214,277" fill="#14b8a6"/>
  <text x="290" y="246" text-anchor="middle" font-size="14" font-weight="700" fill="#ffffff">SRAM</text>
  <text x="290" y="264" text-anchor="middle" font-size="10.5" fill="#d1fae5">shared memory</text>
  <!-- L2 -->
  <polygon points="213,280 368,280 404,341 176,341" fill="#3b82f6"/>
  <text x="290" y="316" text-anchor="middle" font-size="14" font-weight="700" fill="#ffffff">L2 Cache</text>
  <!-- HBM -->
  <polygon points="174,344 406,344 445,410 135,410" fill="#6366f1"/>
  <text x="290" y="381" text-anchor="middle" font-size="14" font-weight="700" fill="#ffffff">HBM / DRAM</text>

  <!-- ===== Right annotation rail ===== -->
  <line x1="556" y1="160" x2="556" y2="400" stroke="#e2e8f0" stroke-width="2"/>

  <!-- connectors from each band's right edge to the rail (at band mid-height) -->
  <g stroke="#cbd5e1" stroke-width="1.5">
    <line x1="311" y1="185" x2="556" y2="185"/>
    <line x1="348" y1="247" x2="556" y2="247"/>
    <line x1="386" y1="311" x2="556" y2="311"/>
    <line x1="425" y1="377" x2="556" y2="377"/>
  </g>

  <!-- Registers tag -->
  <circle cx="584" cy="181" r="6" fill="#f59e0b"/>
  <text x="600" y="186" font-size="16" font-weight="800" fill="#b45309">~20 TB/s</text>
  <text x="600" y="204" font-size="12.5" fill="#64748b">~KB &#183; per-thread</text>

  <!-- SRAM tag -->
  <circle cx="584" cy="243" r="6" fill="#14b8a6"/>
  <text x="600" y="248" font-size="16" font-weight="800" fill="#0f766e">~19 TB/s</text>
  <text x="600" y="266" font-size="12.5" fill="#64748b">~100&#8211;200 KB &#183; per-SM</text>

  <!-- L2 tag -->
  <circle cx="584" cy="307" r="6" fill="#3b82f6"/>
  <text x="600" y="312" font-size="16" font-weight="800" fill="#1d4ed8">~5 TB/s</text>
  <text x="600" y="330" font-size="12.5" fill="#64748b">~40 MB &#183; chip-wide</text>

  <!-- HBM tag -->
  <circle cx="584" cy="373" r="6" fill="#6366f1"/>
  <text x="600" y="378" font-size="16" font-weight="800" fill="#4338ca">~1.5 TB/s</text>
  <text x="600" y="396" font-size="12.5" fill="#64748b">~40&#8211;80 GB &#183; chip-wide</text>
</svg>
